<svg width="25" height="25" viewBox="0 0 25 25" fill="none" xmlns="http://www.w3.org/2000/svg">
<path d="M17.25 4.06V2.5C17.25 2.09 16.91 1.75 16.5 1.75C16.09 1.75 15.75 2.09 15.75 2.5V4H9.24999V2.5C9.24999 2.09 8.90999 1.75 8.49999 1.75C8.08999 1.75 7.74999 2.09 7.74999 2.5V4.06C5.04999 4.31 3.73999 5.92 3.53999 8.31C3.51999 8.6 3.75999 8.84 4.03999 8.84H20.96C21.25 8.84 21.49 8.59 21.46 8.31C21.26 5.92 19.95 4.31 17.25 4.06Z" fill="#F9CB9F"/>
<path d="M20.5 10.34H4.5C3.95 10.34 3.5 10.79 3.5 11.34V17.5C3.5 20.5 5 22.5 8.5 22.5H16.5C20 22.5 21.5 20.5 21.5 17.5V11.34C21.5 10.79 21.05 10.34 20.5 10.34ZM9.71 18.71C9.61 18.8 9.5 18.87 9.38 18.92C9.26 18.97 9.13 19 9 19C8.87 19 8.74 18.97 8.62 18.92C8.5 18.87 8.39 18.8 8.29 18.71C8.11 18.52 8 18.26 8 18C8 17.74 8.11 17.48 8.29 17.29C8.39 17.2 8.5 17.13 8.62 17.08C8.86 16.98 9.14 16.98 9.38 17.08C9.5 17.13 9.61 17.2 9.71 17.29C9.89 17.48 10 17.74 10 18C10 18.26 9.89 18.52 9.71 18.71ZM9.92 14.88C9.87 15 9.8 15.11 9.71 15.21C9.61 15.3 9.5 15.37 9.38 15.42C9.26 15.47 9.13 15.5 9 15.5C8.87 15.5 8.74 15.47 8.62 15.42C8.5 15.37 8.39 15.3 8.29 15.21C8.2 15.11 8.13 15 8.08 14.88C8.03 14.76 8 14.63 8 14.5C8 14.37 8.03 14.24 8.08 14.12C8.13 14 8.2 13.89 8.29 13.79C8.39 13.7 8.5 13.63 8.62 13.58C8.86 13.48 9.14 13.48 9.38 13.58C9.5 13.63 9.61 13.7 9.71 13.79C9.8 13.89 9.87 14 9.92 14.12C9.97 14.24 10 14.37 10 14.5C10 14.63 9.97 14.76 9.92 14.88ZM13.21 15.21C13.11 15.3 13 15.37 12.88 15.42C12.76 15.47 12.63 15.5 12.5 15.5C12.37 15.5 12.24 15.47 12.12 15.42C12 15.37 11.89 15.3 11.79 15.21C11.61 15.02 11.5 14.76 11.5 14.5C11.5 14.24 11.61 13.98 11.79 13.79C11.89 13.7 12 13.63 12.12 13.58C12.36 13.47 12.64 13.47 12.88 13.58C13 13.63 13.11 13.7 13.21 13.79C13.39 13.98 13.5 14.24 13.5 14.5C13.5 14.76 13.39 15.02 13.21 15.21Z" fill="#45594B"/>
</svg>
