<svg width="24" height="24" viewBox="0 0 24 24" fill="none" xmlns="http://www.w3.org/2000/svg">
<path d="M21.6697 6.9499C21.0297 4.7799 19.2197 2.9699 17.0497 2.3299C15.3997 1.8499 14.2597 1.8899 13.4697 2.4799C12.5197 3.1899 12.4097 4.4699 12.4097 5.3799V7.8699C12.4097 10.3299 13.5297 11.5799 15.7297 11.5799H18.5997C19.4997 11.5799 20.7897 11.4699 21.4997 10.5199C22.1097 9.7399 22.1597 8.5999 21.6697 6.9499Z" fill="#F9CB9F"/>
<path opacity="0.4" d="M18.9099 13.3599C18.6499 13.0599 18.2699 12.8899 17.8799 12.8899H14.2999C12.5399 12.8899 11.1099 11.4599 11.1099 9.69991V6.11991C11.1099 5.72991 10.9399 5.34991 10.6399 5.08991C10.3499 4.82991 9.9499 4.70991 9.5699 4.75991C7.2199 5.05991 5.0599 6.34991 3.6499 8.28991C2.2299 10.2399 1.7099 12.6199 2.1599 14.9999C2.8099 18.4399 5.5599 21.1899 9.0099 21.8399C9.5599 21.9499 10.1099 21.9999 10.6599 21.9999C12.4699 21.9999 14.2199 21.4399 15.7099 20.3499C17.6499 18.9399 18.9399 16.7799 19.2399 14.4299C19.2899 14.0399 19.1699 13.6499 18.9099 13.3599Z" fill="#FFFFFF"/>
</svg>
