<svg width="24" height="24" viewBox="0 0 24 24" fill="none" xmlns="http://www.w3.org/2000/svg">
<path d="M1.99658 8.5H11.4966" stroke="#1C1C28" stroke-width="1.5" stroke-miterlimit="10" stroke-linecap="round" stroke-linejoin="round"/>
<path d="M5.99658 16.5H7.99658" stroke="#1C1C28" stroke-width="1.5" stroke-miterlimit="10" stroke-linecap="round" stroke-linejoin="round"/>
<path d="M10.4966 16.5H14.4966" stroke="#1C1C28" stroke-width="1.5" stroke-miterlimit="10" stroke-linecap="round" stroke-linejoin="round"/>
<path d="M21.9966 12.03V16.11C21.9966 19.62 21.1066 20.5 17.5566 20.5H6.43658C2.88658 20.5 1.99658 19.62 1.99658 16.11V7.89C1.99658 4.38 2.88658 3.5 6.43658 3.5H14.4966" stroke="#1C1C28" stroke-width="1.5" stroke-linecap="round" stroke-linejoin="round"/>
<path d="M19.0768 4.13L15.3668 7.84C15.2268 7.98 15.0868 8.26 15.0568 8.46L14.8568 9.88C14.7868 10.39 15.1468 10.75 15.6568 10.68L17.0768 10.48C17.2768 10.45 17.5568 10.31 17.6968 10.17L21.4068 6.46C22.0468 5.82 22.3468 5.08 21.4068 4.14C20.4568 3.19 19.7168 3.49 19.0768 4.13Z" stroke="#1C1C28" stroke-width="1.5" stroke-miterlimit="10" stroke-linecap="round" stroke-linejoin="round"/>
<path d="M18.5464 4.65997C18.8664 5.78997 19.7464 6.66997 20.8664 6.97997" stroke="#1C1C28" stroke-width="1.5" stroke-miterlimit="10" stroke-linecap="round" stroke-linejoin="round"/>
</svg>
