<svg width="43" height="46" viewBox="0 0 43 46" fill="none" xmlns="http://www.w3.org/2000/svg">
<path d="M32.5224 46.0002C27.1027 46.0002 22.7091 41.6067 22.7091 36.1869L22.7091 15.3336L27.0024 15.3336C35.4708 15.3336 42.3358 22.1985 42.3358 30.6669L42.3358 36.1869C42.3358 41.6067 37.9422 46.0002 32.5224 46.0002V46.0002Z" fill="url(#paint0_linear_172_16248)"/>
<path d="M10.4423 4.28954e-07C15.862 1.92049e-07 20.2556 4.39358 20.2556 9.81333L20.2556 30.6667L15.9623 30.6667C7.49392 30.6667 0.628947 23.8017 0.628947 15.3333L0.628947 9.81333C0.628946 4.39357 5.02253 6.65859e-07 10.4423 4.28954e-07V4.28954e-07Z" fill="url(#paint1_linear_172_16248)"/>
<defs>
<linearGradient id="paint0_linear_172_16248" x1="32.5224" y1="46.0002" x2="32.5224" y2="1.22691" gradientUnits="userSpaceOnUse">
<stop stop-color="white"/>
<stop offset="0.755236" stop-color="white" stop-opacity="0"/>
</linearGradient>
<linearGradient id="paint1_linear_172_16248" x1="10.4423" y1="-2.56499e-07" x2="10.4423" y2="44.7733" gradientUnits="userSpaceOnUse">
<stop stop-color="white"/>
<stop offset="0.755236" stop-color="white" stop-opacity="0"/>
</linearGradient>
</defs>
</svg>
