<svg width="116" height="46" viewBox="0 0 116 46" fill="none" xmlns="http://www.w3.org/2000/svg">
<path d="M32.5224 46.0002C27.1027 46.0002 22.7091 41.6067 22.7091 36.1869L22.7091 15.3336L27.0024 15.3336C35.4708 15.3336 42.3358 22.1985 42.3358 30.6669L42.3358 36.1869C42.3358 41.6067 37.9422 46.0002 32.5224 46.0002Z" fill="url(#paint0_linear_172_16252)"/>
<path d="M10.4423 4.28954e-07C15.862 1.92049e-07 20.2556 4.39358 20.2556 9.81333L20.2556 30.6667L15.9623 30.6667C7.49392 30.6667 0.628947 23.8017 0.628947 15.3333L0.628947 9.81333C0.628946 4.39357 5.02253 6.65859e-07 10.4423 4.28954e-07Z" fill="url(#paint1_linear_172_16252)"/>
<path d="M61.4037 29.2939C60.1637 29.2939 59.0437 29.0819 58.0437 28.6579C57.0517 28.2259 56.2317 27.6139 55.5837 26.8219C54.9437 26.0219 54.5277 25.0739 54.3357 23.9779L56.9517 23.5819C57.2157 24.6379 57.7677 25.4619 58.6077 26.0539C59.4477 26.6379 60.4277 26.9299 61.5477 26.9299C62.2437 26.9299 62.8837 26.8219 63.4677 26.6059C64.0517 26.3819 64.5197 26.0659 64.8717 25.6579C65.2317 25.2419 65.4117 24.7459 65.4117 24.1699C65.4117 23.8579 65.3557 23.5819 65.2437 23.3419C65.1397 23.1019 64.9917 22.8939 64.7997 22.7179C64.6157 22.5339 64.3877 22.3779 64.1157 22.2499C63.8517 22.1139 63.5597 21.9979 63.2397 21.9019L58.8117 20.5939C58.3797 20.4659 57.9397 20.3019 57.4917 20.1019C57.0437 19.8939 56.6317 19.6259 56.2557 19.2979C55.8877 18.9619 55.5877 18.5499 55.3557 18.0619C55.1237 17.5659 55.0077 16.9659 55.0077 16.2619C55.0077 15.1979 55.2797 14.2979 55.8237 13.5619C56.3757 12.8179 57.1197 12.2579 58.0557 11.8819C58.9917 11.4979 60.0397 11.3059 61.1997 11.3059C62.3677 11.3219 63.4117 11.5299 64.3317 11.9299C65.2597 12.3299 66.0277 12.9059 66.6357 13.6579C67.2517 14.4019 67.6757 15.3059 67.9077 16.3699L65.2197 16.8259C65.0997 16.1779 64.8437 15.6219 64.4517 15.1579C64.0597 14.6859 63.5797 14.3259 63.0117 14.0779C62.4437 13.8219 61.8277 13.6899 61.1637 13.6819C60.5237 13.6659 59.9357 13.7619 59.3997 13.9699C58.8717 14.1779 58.4477 14.4699 58.1277 14.8459C57.8157 15.2219 57.6597 15.6539 57.6597 16.1419C57.6597 16.6219 57.7997 17.0099 58.0797 17.3059C58.3597 17.6019 58.7037 17.8379 59.1117 18.0139C59.5277 18.1819 59.9397 18.3219 60.3477 18.4339L63.5397 19.3339C63.9397 19.4459 64.3917 19.5979 64.8957 19.7899C65.4077 19.9739 65.8997 20.2339 66.3717 20.5699C66.8517 20.9059 67.2477 21.3539 67.5597 21.9139C67.8717 22.4659 68.0277 23.1619 68.0277 24.0019C68.0277 24.8739 67.8517 25.6419 67.4997 26.3059C67.1477 26.9619 66.6637 27.5139 66.0477 27.9619C65.4397 28.4019 64.7357 28.7339 63.9357 28.9579C63.1357 29.1819 62.2917 29.2939 61.4037 29.2939Z" fill="white"/>
<path d="M79.201 28.9339V22.5619C79.201 22.0579 79.157 21.5419 79.069 21.0139C78.989 20.4779 78.829 19.9819 78.589 19.5259C78.357 19.0699 78.025 18.7019 77.593 18.4219C77.169 18.1419 76.613 18.0019 75.925 18.0019C75.477 18.0019 75.053 18.0779 74.653 18.2299C74.253 18.3739 73.901 18.6099 73.597 18.9379C73.301 19.2659 73.065 19.6979 72.889 20.2339C72.721 20.7699 72.637 21.4219 72.637 22.1899L71.077 21.6019C71.077 20.4259 71.297 19.3899 71.737 18.4939C72.177 17.5899 72.809 16.8859 73.633 16.3819C74.457 15.8779 75.453 15.6259 76.621 15.6259C77.517 15.6259 78.269 15.7699 78.877 16.0579C79.485 16.3459 79.977 16.7259 80.353 17.1979C80.737 17.6619 81.029 18.1699 81.229 18.7219C81.429 19.2739 81.565 19.8139 81.637 20.3419C81.709 20.8699 81.745 21.3339 81.745 21.7339V28.9339H79.201ZM70.093 28.9339V11.6539H72.337V20.9779H72.637V28.9339H70.093Z" fill="white"/>
<path d="M84.6306 13.8499V11.4139H87.1386V13.8499H84.6306ZM84.6306 28.9339V15.9739H87.1386V28.9339H84.6306Z" fill="white"/>
<path d="M99.3582 28.9339V22.5619C99.3582 22.0579 99.3142 21.5419 99.2262 21.0139C99.1462 20.4779 98.9862 19.9819 98.7462 19.5259C98.5142 19.0699 98.1822 18.7019 97.7502 18.4219C97.3262 18.1419 96.7702 18.0019 96.0822 18.0019C95.6342 18.0019 95.2102 18.0779 94.8102 18.2299C94.4102 18.3739 94.0582 18.6099 93.7542 18.9379C93.4582 19.2659 93.2222 19.6979 93.0462 20.2339C92.8782 20.7699 92.7942 21.4219 92.7942 22.1899L91.2342 21.6019C91.2342 20.4259 91.4542 19.3899 91.8942 18.4939C92.3342 17.5899 92.9662 16.8859 93.7902 16.3819C94.6142 15.8779 95.6102 15.6259 96.7782 15.6259C97.6742 15.6259 98.4262 15.7699 99.0342 16.0579C99.6422 16.3459 100.134 16.7259 100.51 17.1979C100.894 17.6619 101.186 18.1699 101.386 18.7219C101.586 19.2739 101.722 19.8139 101.794 20.3419C101.866 20.8699 101.902 21.3339 101.902 21.7339V28.9339H99.3582ZM90.2502 28.9339V15.9739H92.4942V19.7179H92.7942V28.9339H90.2502Z" fill="white"/>
<path d="M105.831 34.6939L108.339 27.8659L108.375 29.8819L102.723 15.9739H105.339L109.563 26.7139H108.795L112.827 15.9739H115.371L108.219 34.6939H105.831Z" fill="white"/>
<defs>
<linearGradient id="paint0_linear_172_16252" x1="32.5224" y1="46.0002" x2="32.5224" y2="1.22691" gradientUnits="userSpaceOnUse">
<stop stop-color="white"/>
<stop offset="0.755236" stop-color="white" stop-opacity="0"/>
</linearGradient>
<linearGradient id="paint1_linear_172_16252" x1="10.4423" y1="-2.56499e-07" x2="10.4423" y2="44.7733" gradientUnits="userSpaceOnUse">
<stop stop-color="white"/>
<stop offset="0.755236" stop-color="white" stop-opacity="0"/>
</linearGradient>
</defs>
</svg>
