<svg width="62" height="24" viewBox="0 0 62 24" fill="none" xmlns="http://www.w3.org/2000/svg">
<path d="M7.40369 18.2939C6.16369 18.2939 5.04369 18.0819 4.04369 17.6579C3.05169 17.2259 2.23169 16.6139 1.58369 15.8219C0.943693 15.0219 0.527693 14.0739 0.335693 12.9779L2.95169 12.5819C3.21569 13.6379 3.76769 14.4619 4.60769 15.0539C5.44769 15.6379 6.42769 15.9299 7.54769 15.9299C8.24369 15.9299 8.88369 15.8219 9.46769 15.6059C10.0517 15.3819 10.5197 15.0659 10.8717 14.6579C11.2317 14.2419 11.4117 13.7459 11.4117 13.1699C11.4117 12.8579 11.3557 12.5819 11.2437 12.3419C11.1397 12.1019 10.9917 11.8939 10.7997 11.7179C10.6157 11.5339 10.3877 11.3779 10.1157 11.2499C9.85169 11.1139 9.55969 10.9979 9.23969 10.9019L4.81169 9.59391C4.37969 9.46591 3.93969 9.30191 3.49169 9.10191C3.04369 8.89391 2.63169 8.62591 2.25569 8.29791C1.88769 7.96191 1.58769 7.54991 1.35569 7.06191C1.12369 6.56591 1.00769 5.96591 1.00769 5.26191C1.00769 4.19791 1.27969 3.29791 1.82369 2.56191C2.37569 1.81791 3.11969 1.25791 4.05569 0.881907C4.99169 0.497908 6.03969 0.305908 7.19969 0.305908C8.36769 0.321908 9.41169 0.529908 10.3317 0.929909C11.2597 1.32991 12.0277 1.90591 12.6357 2.65791C13.2517 3.40191 13.6757 4.30591 13.9077 5.36991L11.2197 5.82591C11.0997 5.17791 10.8437 4.62191 10.4517 4.15791C10.0597 3.68591 9.57969 3.32591 9.01169 3.07791C8.44369 2.82191 7.82769 2.68991 7.16369 2.68191C6.52369 2.66591 5.93569 2.76191 5.39969 2.96991C4.87169 3.17791 4.44769 3.46991 4.12769 3.84591C3.81569 4.22191 3.65969 4.65391 3.65969 5.14191C3.65969 5.62191 3.79969 6.00991 4.07969 6.30591C4.35969 6.60191 4.70369 6.83791 5.11169 7.01391C5.52769 7.18191 5.93969 7.32191 6.34769 7.43391L9.53969 8.33391C9.93969 8.44591 10.3917 8.59791 10.8957 8.78991C11.4077 8.97391 11.8997 9.23391 12.3717 9.56991C12.8517 9.90591 13.2477 10.3539 13.5597 10.9139C13.8717 11.4659 14.0277 12.1619 14.0277 13.0019C14.0277 13.8739 13.8517 14.6419 13.4997 15.3059C13.1477 15.9619 12.6637 16.5139 12.0477 16.9619C11.4397 17.4019 10.7357 17.7339 9.93569 17.9579C9.13569 18.1819 8.29169 18.2939 7.40369 18.2939Z" fill="white"/>
<path d="M25.201 17.9339V11.5619C25.201 11.0579 25.157 10.5419 25.069 10.0139C24.989 9.47791 24.829 8.98191 24.589 8.52591C24.357 8.06991 24.025 7.70191 23.593 7.42191C23.169 7.14191 22.613 7.00191 21.925 7.00191C21.477 7.00191 21.053 7.07791 20.653 7.22991C20.253 7.37391 19.901 7.60991 19.597 7.93791C19.301 8.26591 19.065 8.69791 18.889 9.23391C18.721 9.76991 18.637 10.4219 18.637 11.1899L17.077 10.6019C17.077 9.42591 17.297 8.38991 17.737 7.49391C18.177 6.58991 18.809 5.88591 19.633 5.38191C20.457 4.87791 21.453 4.62591 22.621 4.62591C23.517 4.62591 24.269 4.76991 24.877 5.05791C25.485 5.34591 25.977 5.72591 26.353 6.19791C26.737 6.66191 27.029 7.16991 27.229 7.72191C27.429 8.27391 27.565 8.81391 27.637 9.34191C27.709 9.86991 27.745 10.3339 27.745 10.7339V17.9339H25.201ZM16.093 17.9339V0.653909H18.337V9.97791H18.637V17.9339H16.093Z" fill="white"/>
<path d="M30.6306 2.84991V0.413909H33.1386V2.84991H30.6306ZM30.6306 17.9339V4.97391H33.1386V17.9339H30.6306Z" fill="white"/>
<path d="M45.3582 17.9339V11.5619C45.3582 11.0579 45.3142 10.5419 45.2262 10.0139C45.1462 9.47791 44.9862 8.98191 44.7462 8.52591C44.5142 8.06991 44.1822 7.70191 43.7502 7.42191C43.3262 7.14191 42.7702 7.00191 42.0822 7.00191C41.6342 7.00191 41.2102 7.07791 40.8102 7.22991C40.4102 7.37391 40.0582 7.60991 39.7542 7.93791C39.4582 8.26591 39.2222 8.69791 39.0462 9.23391C38.8782 9.76991 38.7942 10.4219 38.7942 11.1899L37.2342 10.6019C37.2342 9.42591 37.4542 8.38991 37.8942 7.49391C38.3342 6.58991 38.9662 5.88591 39.7902 5.38191C40.6142 4.87791 41.6102 4.62591 42.7782 4.62591C43.6742 4.62591 44.4262 4.76991 45.0342 5.05791C45.6422 5.34591 46.1342 5.72591 46.5102 6.19791C46.8942 6.66191 47.1862 7.16991 47.3862 7.72191C47.5862 8.27391 47.7222 8.81391 47.7942 9.34191C47.8662 9.86991 47.9022 10.3339 47.9022 10.7339V17.9339H45.3582ZM36.2502 17.9339V4.97391H38.4942V8.71791H38.7942V17.9339H36.2502Z" fill="white"/>
<path d="M51.8311 23.6939L54.3391 16.8659L54.3751 18.8819L48.7231 4.97391H51.3391L55.5631 15.7139H54.7951L58.8271 4.97391H61.3711L54.2191 23.6939H51.8311Z" fill="white"/>
</svg>
