<svg width="32" height="32" viewBox="0 0 32 32" fill="none" xmlns="http://www.w3.org/2000/svg">
<path d="M15.9998 2.66675C8.65317 2.66675 2.6665 8.65341 2.6665 16.0001C2.6665 23.3467 8.65317 29.3334 15.9998 29.3334C23.3465 29.3334 29.3332 23.3467 29.3332 16.0001C29.3332 8.65341 23.3465 2.66675 15.9998 2.66675ZM22.3732 12.9334L14.8132 20.4934C14.6265 20.6801 14.3732 20.7867 14.1065 20.7867C13.8398 20.7867 13.5865 20.6801 13.3998 20.4934L9.6265 16.7201C9.23984 16.3334 9.23984 15.6934 9.6265 15.3067C10.0132 14.9201 10.6532 14.9201 11.0398 15.3067L14.1065 18.3734L20.9598 11.5201C21.3465 11.1334 21.9865 11.1334 22.3732 11.5201C22.7598 11.9067 22.7598 12.5334 22.3732 12.9334Z" fill="#499D2F"/>
</svg>
